:SAMPLES-PER-SECOND 30
:FULLY-SPECIFIED
:DEGREES
340
root  -1.18017 33.5417 -2.17464 9.44254 -36.8804 0.479866
RightUpLeg  -5.97224 -19.4106 -12.7908
RightLeg  7.77093 -1.8525 -0.131107
RightFoot  7.91334 0.0411767 -0.0545748
RightToes  -41.1471 -0.227711 -0.32151
Spine  -0.755547 1.01874 -0.144906
Spine1  -1.59192 2.20155 0.297
HEad  -49.9343 -2.78582 1.31819
LeftShoulder1  -1.94126e-019 -3.10601e-018 -2.51263e-017
LeftArm  -20.013 22.8254 -79.1842
LeftForeArm  31.2579 -11.338 -2.00736
LeftHand  -0.350674 1.52843 10.4512
RightShoulder  -4.96962e-017 0 -2.36833e-017
RightArm  -18.0168 -18.1861 77.348
RightForeArm  46.9481 14.7018 1.35675
RightHand  -0.0979585 -4.73928 -15.0964
LeftUpLeg  -18.1668 5.94119 5.83563
LeftLeg  26.9795 13.0108 5.53345
LeftFoot  -2.29832 -0.012328 -0.453028
LeftToes  -27.4565 1.34695e-006 1.12385e-007
341
root  -0.446792 33.3973 -1.35527 8.23879 -35.0338 2.47185
RightUpLeg  -6.50538 -17.4334 -16.1161
RightLeg  11.34 -5.39245 -0.722217
RightFoot  5.69475 0.0430248 -0.30917
RightToes  -37.9963 -0.202678 -0.303526
Spine  -0.625606 1.12379 -0.746262
Spine1  -1.36186 2.41416 -0.89329
HEad  -50.2597 -5.28848 2.02394
LeftShoulder1  -1.94126e-019 -3.10601e-018 -2.51263e-017
LeftArm  -18.2317 22.7378 -79.123
LeftForeArm  31.6722 -11.152 -1.97036
LeftHand  -0.361585 0.745313 9.03427
RightShoulder  -4.96962e-017 0 -2.36833e-017
RightArm  -19.0892 -17.7078 77.4106
RightForeArm  48.6263 14.2733 1.35379
RightHand  -0.129579 -4.50526 -15.359
LeftUpLeg  -19.1064 7.09061 2.56951
LeftLeg  28.6178 10.1963 4.70094
LeftFoot  -4.10656 -0.0303525 -0.685055
LeftToes  -25.9229 1.34695e-006 1.12385e-007
342
root  0.157886 33.3472 -0.661574 7.87986 -33.5315 3.16106
RightUpLeg  -8.06937 -13.3244 -17.3452
RightLeg  16.2905 -10.9657 -2.43358
RightFoot  1.88058 0.0107715 -0.100736
RightToes  -23.8491 -0.103939 -0.207026
Spine  -0.486113 1.46348 -1.16877
Spine1  -1.10835 3.0952 -1.73348
HEad  -50.2905 -7.82877 2.70902
LeftShoulder1  -1.94126e-019 -3.10601e-018 -2.51263e-017
LeftArm  -16.0728 23.0007 -78.6619
LeftForeArm  32.5508 -13.6646 -2.41333
LeftHand  -0.347843 -0.271127 7.21563
RightShoulder  -4.96962e-017 0 -2.36833e-017
RightArm  -21.1893 -17.2876 78.0526
RightForeArm  51.1892 14.0491 1.32772
RightHand  -0.143425 -4.42511 -15.8114
LeftUpLeg  -19.4157 7.83046 0.631938
LeftLeg  29.3689 8.0842 3.86525
LeftFoot  -5.59982 -0.0445451 -0.749269
LeftToes  -24.3884 1.34695e-006 1.12385e-007
343
root  0.621268 33.3347 -0.0346867 8.12082 -32.7233 2.71058
RightUpLeg  -10.6848 -11.2745 -16.7225
RightLeg  22.2238 -12.6658 -4.2047
RightFoot  -2.54075 0.00533962 0.891105
RightToes  -11.0907 -0.0375512 -0.101623
Spine  -0.302539 1.91657 -1.29179
Spine1  -0.748874 3.99775 -1.97317
HEad  -50.3424 -9.80694 3.02422
LeftShoulder1  -1.94126e-019 -3.10601e-018 -2.51263e-017
LeftArm  -12.9827 23.4024 -78.1986
LeftForeArm  31.9598 -16.9997 -2.9371
LeftHand  -0.331177 -0.861708 6.2728
RightShoulder  -4.96962e-017 0 -2.36833e-017
RightArm  -21.5719 -16.8241 78.5485
RightForeArm  51.2433 14.6717 1.2601
RightHand  -0.158331 -4.2971 -15.5599
LeftUpLeg  -19.298 7.21824 -0.144826
LeftLeg  29.8913 8.03099 3.92978
LeftFoot  -7.06725 -0.0700198 -0.972325
LeftToes  -22.1809 1.34695e-006 1.12385e-007
344
root  0.933106 33.3922 0.547479 8.47798 -31.7455 2.12409
RightUpLeg  -13.3985 -11.0306 -14.9935
RightLeg  27.517 -10.4185 -4.5713
RightFoot  -3.35064 0.00938203 0.949622
RightToes  -15.2653 -0.0566669 -0.137707
Spine  -0.183221 2.01019 -1.21591
Spine1  -0.497978 4.17941 -1.80473
HEad  -50.1293 -11.1315 2.99879
LeftShoulder1  -1.94126e-019 -3.10601e-018 -2.51263e-017
LeftArm  -11.3711 23.7227 -78.2155
LeftForeArm  31.2248 -18.512 -3.11635
LeftHand  -0.350273 -1.05593 6.44522
RightShoulder  -4.96962e-017 0 -2.36833e-017
RightArm  -19.6212 -15.913 78.616
RightForeArm  49.3471 15.3981 1.24728
RightHand  -0.173532 -4.14365 -15.0698
LeftUpLeg  -18.6523 4.52567 -0.515169
LeftLeg  29.598 9.68766 4.67024
LeftFoot  -8.00163 -0.107207 -1.37119
LeftToes  -19.3924 1.34695e-006 1.12385e-007
345
root  1.10206 33.5257 1.10087 8.86829 -30.8242 1.56088
RightUpLeg  -16.002 -10.4067 -12.5285
RightLeg  31.5431 -7.47529 -3.94334
RightFoot  -3.97923 0.00843358 0.849286
RightToes  -17.1381 -0.0660859 -0.153423
Spine  -0.120983 1.90316 -1.19995
Spine1  -0.372637 3.97354 -1.77609
HEad  -49.7909 -12.117 3.61101
LeftShoulder1  -1.94126e-019 -3.10601e-018 -2.51263e-017
LeftArm  -11.5271 23.9918 -78.1749
LeftForeArm  30.8808 -19.1074 -3.20615
LeftHand  -0.368733 -0.928834 6.9044
RightShoulder  -4.96962e-017 0 -2.36833e-017
RightArm  -19.8082 -14.5714 79.288
RightForeArm  50.8285 15.5867 1.19564
RightHand  -0.264198 -3.41233 -14.9378
LeftUpLeg  -17.3922 2.11237 -0.678943
LeftLeg  28.1328 11.237 5.05935
LeftFoot  -8.22648 -0.129766 -1.64279
LeftToes  -17.274 1.34695e-006 1.12385e-007
346
root  1.17441 33.7059 1.60337 9.8363 -30.3441 0.85063
RightUpLeg  -19.0149 -9.80721 -9.26462
RightLeg  34.1802 -6.1399 -3.61787
RightFoot  -3.86073 0.00432791 0.726898
RightToes  -18.2039 -0.0716743 -0.162227
Spine  -0.282744 1.74995 -1.26422
Spine1  -0.69006 3.65852 -1.89815
HEad  -49.3584 -12.9366 4.64647
LeftShoulder1  -1.94126e-019 -3.10601e-018 -2.51263e-017
LeftArm  -11.9593 24.3909 -77.8123
LeftForeArm  29.9926 -19.0749 -3.24625
LeftHand  -0.365338 -0.613495 7.17347
RightShoulder  -4.96962e-017 0 -2.36833e-017
RightArm  -19.4887 -13.6818 80.3252
RightForeArm  51.2318 16.278 1.1668
RightHand  -0.28382 -3.27408 -15.0634
LeftUpLeg  -16.236 1.0468 -0.557471
LeftLeg  25.839 11.9931 4.83297
LeftFoot  -7.95194 -0.127132 -1.66739
LeftToes  -16.1272 1.34695e-006 1.12385e-007
347
root  1.17482 33.8848 2.15596 10.817 -29.5746 -0.016198
RightUpLeg  -21.6804 -11.4468 -5.38721
RightLeg  35.6068 -6.47876 -4.03619
RightFoot  -3.58674 0.00372504 0.721575
RightToes  -18.4457 -0.0729648 -0.164209
Spine  -0.39722 1.29822 -1.28237
Spine1  -0.908336 2.74511 -1.92438
HEad  -49.1523 -13.3933 5.82816
LeftShoulder1  -1.94126e-019 -3.10601e-018 -2.51263e-017
LeftArm  -11.8948 24.6789 -77.2457
LeftForeArm  29.3243 -18.3432 -3.15563
LeftHand  -0.352531 -0.469805 7.08181
RightShoulder  -4.96962e-017 0 -2.36833e-017
RightArm  -19.0344 -13.0392 81.4377
RightForeArm  50.433 17.5165 1.32513
RightHand  -0.285039 -3.23963 -14.8899
LeftUpLeg  -14.7279 0.116962 -0.194775
LeftLeg  23.1497 12.4873 4.36745
LeftFoot  -7.2702 -0.108693 -1.54923
LeftToes  -16.9748 1.34695e-006 1.12385e-007
